<!DOCTYPE svg PUBLIC "-//W3C//DTD SVG 1.1//EN" "http://www.w3.org/Graphics/SVG/1.1/DTD/svg11.dtd">

<!-- Uploaded to: SVG Repo, www.svgrepo.com, Transformed by: SVG Repo Mixer Tools -->
<svg width="400px" height="200px" viewBox="0 0 256 256" style="fill-rule:evenodd;clip-rule:evenodd;stroke-linejoin:round;stroke-miterlimit:1.41421;" version="1.1" xml:space="preserve" xmlns="http://www.w3.org/2000/svg" xmlns:serif="http://www.serif.com/" xmlns:xlink="http://www.w3.org/1999/xlink" fill="#000000">

<g id="SVGRepo_bgCarrier" stroke-width="0"/>

<g id="SVGRepo_tracerCarrier" stroke-linecap="round" stroke-linejoin="round"/>

<g id="SVGRepo_iconCarrier">

<path d="M35.233,41.317c5.911,0.087 12.356,0.707 18.631,0.997c0,0 3.914,0.65 5.206,3.555c1.598,3.594 -1.279,8.446 -5.494,8.439c-5.929,-0.011 -12.148,-0.672 -18.097,-0.981c-2.209,-0.094 -4.985,0.497 -5.706,1.972l-0.005,11.891c0,0 -2.023,7.169 -7.448,5.821c-2.571,-0.639 -4.494,-3.144 -4.552,-5.825l0.003,-11.972c0.075,-8.083 9.037,-13.943 17.462,-13.897Z" style="fill:#ffed00;fill-opacity:0.290196;fill-rule:nonzero;"/>

<path d="M231.079,155.415c0.978,0.043 1.271,0.136 1.822,0.326c2.369,0.817 3.981,2.798 4.044,5.674l-0.003,11.972c-0.079,8.426 -9.974,14.304 -18.477,13.863c-5.863,-0.358 -11.74,-0.691 -17.617,-0.963c0,0 -4.512,-1.008 -5.48,-4.302c-1.038,-3.535 1.834,-7.699 5.768,-7.691c5.929,0.011 12.148,0.671 18.098,0.98c2.206,0.094 4.984,-0.497 5.705,-1.971c0,0 0.006,-11.891 0.006,-11.891c0,0 0.959,-5.781 5.869,-5.997c0.088,0 0.177,0 0.265,0Z" style="fill:#ffed00;fill-opacity:0.290196;fill-rule:nonzero;"/>

<path d="M100.706,199.292c-24.359,0.84 -48.585,2.928 -72.448,6.347c-1.556,0.222 -3.733,0.54 -3.733,0.54c-11.662,1.38 -23.352,-8.08 -23.607,-20.551c-0.289,-42.436 -0.002,-84.769 0.003,-127.122l0.002,-14.221c0,0 0.128,-4.078 1.299,-7.251c3.154,-8.542 12.267,-14.419 21.588,-13.636c66.139,6.435 133.708,6.73 200.217,0.695c2.744,-0.249 5.486,-0.518 8.227,-0.776c0,0 0.702,-0.094 2.21,-0.076c10.783,0.265 20.396,9.542 20.618,20.719c0.309,47.21 0.003,94.335 -0.011,141.532c0,0 -0.134,4.181 -1.363,7.421c-3.307,8.722 -12.862,14.558 -22.376,13.365c-26.207,-3.649 -52.741,-5.999 -79.307,-6.943l0.001,0.044l0,6.149c16.171,2.238 32.021,6.502 47.25,12.684c0,0 4.815,2.602 4.197,6.674c-0.565,3.726 -4.851,6.019 -8.728,4.438c-0.343,-0.139 -0.686,-0.278 -1.03,-0.416c-42.3,-16.879 -90.487,-17.757 -133.068,-0.778c0,0 -5.79,1.072 -7.683,-3.088c-1.464,-3.216 0.434,-6.96 4.294,-8.478c13.901,-5.467 28.55,-9.21 43.445,-11.196l0,-5.989l0.003,-0.087Zm133.305,-164.054c-6.231,0.092 -13.359,1.223 -20.194,1.774c-60.569,4.884 -121.882,4.784 -182.565,-0.838c-4.004,-0.371 -8.257,-1.521 -11.787,-0.521c-3.694,1.046 -6.463,4.625 -6.541,8.533c-0.312,47.102 -0.328,94.181 -0.007,141.278c0.103,5.025 4.817,9.434 10.116,8.807c17.904,-2.367 35.924,-4.614 54.005,-5.87c50.801,-3.53 101.921,-1.466 152.431,5.499c6.12,0.844 13.448,-0.767 13.602,-8.306c0.316,-47.083 0.321,-94.277 0.012,-141.476c-0.092,-4.603 -3.973,-8.697 -8.718,-8.876c-0.118,-0.003 -0.236,-0.004 -0.354,-0.004Z" style="fill:#ffed00;fill-rule:nonzero;"/>
    

</g>

</svg>